<?xml version="1.0" encoding="iso-8859-1"?>
<!-- Generator: Adobe Illustrator 19.0.0, SVG Export Plug-In . SVG Version: 6.00 Build 0)  -->
<svg version="1.1" id="Capa_1" xmlns="http://www.w3.org/2000/svg" xmlns:xlink="http://www.w3.org/1999/xlink" x="0px" y="0px"
	 viewBox="0 0 512 512" style="enable-background:new 0 0 512 512;" xml:space="preserve">
<g>
	<path style="fill:#0CA656;" d="M497,37.258h-38.091c-8.291,0-15-6.709-15-15s6.709-15,15-15H497c8.291,0,15,6.709,15,15
		S505.291,37.258,497,37.258z"/>
	<path style="fill:#0CA656;" d="M460.935,7.257H397.71C163.955,15.061,72.668,123.887,0.849,328.155
		c-1.816,5.171-0.674,11.001,2.988,15.073c2.9,3.223,6.987,5.039,11.221,5.039c1.113,0,2.256-0.132,3.369-0.396
		c45.294-3.12,82.667-26.323,104.494-43.828c29.078-23.307,38.336-41.031,47.272-58.171c25.856-49.563,85.902-87.059,115.11-99.232
		L472.166,29.275c1.23-2.314,1.816-5.054,1.743-7.734c-0.029-2.271-0.571-4.526-1.626-6.621
		C470.053,10.537,465.723,7.949,460.935,7.257z"/>
</g>
<g>
	<path style="fill:#32D736;" d="M281.336,109.049c-19.038-27.192-12.449-64.521,14.722-83.586
		c27.359-19.124,64.688-12.278,83.571,14.751c19.023,27.11,12.494,64.451-14.722,83.557
		C337.696,142.812,300.411,136.236,281.336,109.049z"/>
	<path style="fill:#32D736;" d="M61.075,263.847c-18.968-27.075-12.551-64.442,14.751-83.557
		c27.075-18.968,64.442-12.566,83.557,14.736c18.971,27.101,12.363,64.587-14.722,83.571h-0.015
		C117.629,297.507,80.144,291.084,61.075,263.847z"/>
	<path style="fill:#32D736;" d="M166.869,213.264c-19.305,0-37.707-9.1-49.278-25.592c-19.007-27.222-12.436-64.511,14.736-83.586
		c27.303-19.085,64.629-12.319,83.571,14.751c9.199,13.11,12.729,29.034,9.932,44.825c-2.769,15.762-11.528,29.518-24.654,38.731
		C190.981,209.529,179.087,213.264,166.869,213.264z"/>
	<path style="fill:#32D736;" d="M191.333,136.05c-19.038-27.192-12.449-64.521,14.722-83.586
		c27.359-19.124,64.688-12.278,83.571,14.751c19.023,27.11,12.494,64.451-14.722,83.557
		C247.694,169.813,210.408,163.237,191.333,136.05z"/>
</g>
<path style="fill:#61DE56;" d="M460.949,7.257h-1.45c-2.289-0.09-4.618,0.106-6.786,1.099
	C212.337,117.309,148.925,231.62,174.486,491.153c0.542,5.449,4.028,10.239,9.053,12.393c1.934,0.82,3.97,1.216,5.991,1.216
	c3.281,0,6.533-1.055,9.185-3.135c39.728-21.944,62.844-56.486,75.251-81.594c16.509-33.429,17.403-53.396,18.268-72.717
	c2.645-59.64,44.949-132.929,95.291-165.064c16.305-10.4,33.165-21.168,53.85-52.18c15.527-23.277,33.795-60.573,32.389-105.955
	c0.762-5.42-1.479-10.825-5.859-14.106C465.825,8.457,463.414,7.603,460.949,7.257z"/>
<g>
</g>
<g>
</g>
<g>
</g>
<g>
</g>
<g>
</g>
<g>
</g>
<g>
</g>
<g>
</g>
<g>
</g>
<g>
</g>
<g>
</g>
<g>
</g>
<g>
</g>
<g>
</g>
<g>
</g>
</svg>
