<svg id="Capa_1" enable-background="new 0 0 511.68 511.68" height="512" viewBox="0 0 511.68 511.68" width="512" xmlns="http://www.w3.org/2000/svg"><g><g><g><path d="m101.984 511.68c-27.107 0-51.082-10.256-71.405-30.579-23.085-23.085-33.182-50.886-30.01-82.631 2.737-27.392 15.258-57.842 38.278-93.091 40.329-61.752 108.039-131.165 192.365-215.491 18.13-18.131 36.78-35.775 55.432-52.443 6.178-5.519 15.658-4.988 21.18 1.189 5.521 6.177 162.884 155.284 169.086 160.775 6.203 5.492 6.778 14.972 1.287 21.175-17.845 20.152-36.821 40.301-56.404 59.884-84.326 84.327-153.739 152.036-215.491 192.365-35.249 23.02-65.7 35.541-93.091 38.277-3.798.38-7.544.57-11.227.57z" fill="#5bc980"/><path d="m476.909 199.409c-3.1-2.745-43.959-41.364-84.749-80.083l-361.588 361.767c.003.003.005.005.007.008 20.323 20.323 44.297 30.579 71.405 30.579 3.684 0 7.429-.189 11.227-.569 27.391-2.736 57.841-15.258 93.091-38.277 61.752-40.329 131.165-108.038 215.491-192.365 19.583-19.583 38.56-39.731 56.404-59.884 5.491-6.204 4.916-15.684-1.288-21.176z" fill="#00b44b"/></g><g><path d="m121.692 322.905c-3.839 0-7.677-1.464-10.606-4.394-5.858-5.857-5.858-15.355 0-21.213l145.294-145.293c5.858-5.858 15.356-5.858 21.213 0 5.858 5.857 5.858 15.355 0 21.213l-145.295 145.294c-2.928 2.928-6.768 4.393-10.606 4.393z" fill="#1fbf66"/><path d="m252.315 358.22c-3.839 0-7.678-1.465-10.606-4.394-5.858-5.857-5.858-15.355 0-21.213l92.57-92.57c5.857-5.857 15.355-5.857 21.213 0s5.858 15.356 0 21.213l-92.569 92.57c-2.931 2.929-6.769 4.394-10.608 4.394z" fill="#00a03c"/><g><path d="m30.579 481.101c3.732 3.732 7.588 7.121 11.563 10.173l221.582-221.582c5.858-5.858 5.858-15.355 0-21.213-5.857-5.857-15.356-5.857-21.213 0l-221.773 221.493c2.965 3.822 6.245 7.532 9.841 11.129z" fill="#00b44b"/><path d="m263.381 248.169-232.809 232.924c.003.002.005.005.007.008 3.732 3.732 7.588 7.121 11.563 10.173l221.582-221.582c5.858-5.858 5.858-15.355 0-21.213-.11-.111-.23-.204-.343-.31z" fill="#00a03c"/></g></g></g><g><g><path d="m379.814 255.859c-33.12 0-64.258-12.897-87.676-36.317-23.419-23.419-36.317-54.556-36.317-87.676 0-33.119 12.897-64.257 36.317-87.676 48.344-48.343 127.006-48.344 175.352 0 48.344 48.345 48.344 127.008 0 175.352-23.419 23.42-54.557 36.317-87.676 36.317z" fill="#bee8c9"/><path d="m467.374 44.076-175.307 175.393c.024.024.047.049.071.073 23.419 23.419 54.556 36.317 87.676 36.317 33.119 0 64.257-12.897 87.676-36.317 48.344-48.344 48.344-127.007 0-175.353-.038-.038-.078-.074-.116-.113z" fill="#a0deb0"/></g><g><path d="m379.816 263.791c-35.239 0-68.369-13.723-93.286-38.641-24.918-24.917-38.641-58.047-38.641-93.286 0-35.238 13.723-68.368 38.641-93.286 51.438-51.437 135.133-51.438 186.572 0 51.437 51.439 51.437 135.135 0 186.572-24.918 24.918-58.048 38.641-93.286 38.641zm0-233.806c-26.102 0-52.203 9.936-72.073 29.806-19.251 19.252-29.854 44.848-29.854 72.073s10.603 52.822 29.854 72.073 44.848 29.854 72.073 29.854c27.226 0 52.821-10.603 72.073-29.854 39.74-39.741 39.74-104.404 0-144.146-19.871-19.87-45.973-29.806-72.073-29.806z" fill="#00b44b"/><path d="m472.984 38.463-21.208 21.218c.037.037.076.073.113.11 39.74 39.742 39.74 104.405 0 144.146-19.252 19.251-44.848 29.854-72.073 29.854-27.226 0-52.822-10.603-72.073-29.854-.025-.025-.05-.051-.075-.077l-21.208 21.218c.024.024.046.048.07.072 24.917 24.918 58.047 38.641 93.286 38.641 35.238 0 68.368-13.723 93.286-38.641 51.437-51.438 51.437-135.134 0-186.572-.039-.039-.079-.076-.118-.115z" fill="#008932"/></g><g><path d="m338.085 100.926c-3.839 0-7.677-1.464-10.605-4.392-5.858-5.858-5.859-15.354-.002-21.213l5.327-5.328c5.857-5.859 15.355-5.859 21.213-.002s5.859 15.355.002 21.213l-5.327 5.328c-2.929 2.929-6.769 4.394-10.608 4.394z" fill="#d3f3db"/><path d="m426.347 184.188c-3.839 0-7.679-1.465-10.607-4.395-5.857-5.858-5.856-15.355.002-21.213l5.328-5.327c5.858-5.858 15.356-5.857 21.213.002 5.857 5.858 5.856 15.355-.002 21.213l-5.328 5.327c-2.929 2.929-6.767 4.393-10.606 4.393z" fill="#bee8c9"/><g><g><path d="m335.824 161.076-5.327 5.327c-4.706 4.705-5.623 11.757-2.768 17.387l25.473-25.486c-5.629-2.849-12.675-1.931-17.378 2.772z" fill="#d3f3db"/><path d="m353.201 158.304-25.473 25.486c.699 1.378 1.616 2.674 2.768 3.826 2.929 2.929 6.767 4.394 10.606 4.394s7.678-1.465 10.606-4.394l5.327-5.327c5.858-5.857 5.858-15.355 0-21.213-1.153-1.154-2.452-2.072-3.834-2.772z" fill="#bee8c9"/></g><g><path d="m390.384 118.201-7.325-1.763c-8.056-1.932-16.156 3.02-18.094 11.074-1.321 5.492.568 11.001 4.453 14.567l23.145-23.157c-.7-.285-1.421-.538-2.179-.721z" fill="#d3f3db"/><path d="m392.563 118.924-23.145 23.157c1.814 1.665 4.059 2.91 6.621 3.526l7.325 1.763c1.181.283 2.359.42 3.522.42 6.772 0 12.917-4.62 14.571-11.494 1.757-7.297-2.157-14.615-8.894-17.372z" fill="#bee8c9"/></g><g><path d="m417.873 109.329c-3.839 0-7.678-1.465-10.606-4.394-5.858-5.857-5.858-15.355 0-21.213l5.327-5.327c5.857-5.857 15.355-5.857 21.213 0s5.858 15.355 0 21.213l-5.327 5.327c-2.929 2.929-6.768 4.394-10.607 4.394z" fill="#d3f3db"/><path d="m433.42 78.046-26.497 26.51c.117.125.221.257.343.38 2.929 2.929 6.767 4.394 10.606 4.394s7.678-1.465 10.607-4.394l5.327-5.327c5.858-5.857 5.858-15.355 0-21.213-.123-.125-.258-.231-.386-.35z" fill="#bee8c9"/></g></g></g></g></g></svg>