<svg height="512pt" viewBox="-64 0 512 512.00009" width="512pt" xmlns="http://www.w3.org/2000/svg"><path d="m322.65625 142.164062c-35.761719-10.40625-60.972656-1.875-77.101562 8.996094 22.609374 20.601563 33.917968 67.011719 33.917968 156.214844 0 90.277344-26.433594 146.152344-50.613281 178.386719 95.359375 67.558593 138.703125-108.921875 151.5625-177.179688 11.183594-59.355469.457031-149.476562-57.765625-166.417969zm0 0" fill="#d44545"/><path d="m105.03125 307.378906c0-89.207031 11.320312-135.613281 33.964844-156.21875-16.15625-10.871094-41.398438-19.402344-77.214844-8.996094-58.304688 16.941407-69.042969 107.0625-57.847656 166.421876 12.878906 68.253906 56.285156 244.734374 151.777344 177.175781-24.210938-32.230469-50.679688-88.109375-50.679688-178.382813zm0 0" fill="#f26d6d"/><path d="m202.910156 137.589844c-7.152344.382812-14.316406.382812-21.464844 0-51.933593-2.773438-77.898437 33.730468-77.898437 169.789062 0 104.722656 35.117187 163.160156 61.144531 192.089844 15.03125 16.710938 39.9375 16.710938 54.972656 0 26.023438-28.929688 61.140626-87.367188 61.140626-192.089844 0-136.058594-25.964844-172.5625-77.894532-169.789062zm0 0" fill="#e95353"/><path d="m301.234375 138.113281c.257813-.03125.515625-.0625.773437-.09375-25.050781-2.660156-43.625 4.496094-56.453124 13.140625 22.609374 20.605469 33.917968 67.011719 33.917968 156.21875 0 90.273438-26.433594 146.152344-50.613281 178.382813 19.042969 13.492187 36.011719 17.242187 51.078125 14.074219-3-.597657-6.0625-1.457032-9.1875-2.589844-11.519531-4.183594-16.175781-17.996094-9.828125-28.476563 20.378906-33.65625 39.15625-85.308593 39.15625-161.390625 0-65.3125-6.0625-107.683594-18.183594-133.78125-7.152343-15.40625 2.484375-33.398437 19.339844-35.484375zm0 0" fill="#c03636"/><path d="m24.539062 308.585938c-11.199218-59.359376-.457031-149.480469 57.847657-166.421876 7.339843-2.132812 14.230469-3.460937 20.695312-4.144531-11.800781-1.347656-25.523437-.441406-41.300781 4.144531-58.304688 16.941407-69.042969 107.0625-57.847656 166.421876 11.417968 60.507812 46.828125 206.0625 121.246094 191.253906-60.46875-12.679688-90.332032-136.625-100.640626-191.253906zm0 0" fill="#e95353"/><path d="m216.148438 137.832031c-4.210938-.417969-8.621094-.488281-13.238282-.242187-.144531.007812-.289062.011718-.429687.015625 4.550781.234375 9.109375.304687 13.667969.226562zm0 0" fill="#d44545"/><path d="m185.292969 499.46875c-26.023438-28.929688-61.140625-87.367188-61.140625-192.089844 0-123.953125 21.554687-165.273437 64.65625-169.546875-2.453125-.039062-4.910156-.109375-7.363282-.242187-51.933593-2.773438-77.898437 33.730468-77.898437 169.789062 0 104.722656 35.117187 163.160156 61.144531 192.089844 10.128906 11.257812 24.734375 14.917969 37.789063 11.007812-6.324219-1.898437-12.28125-5.558593-17.1875-11.007812zm0 0" fill="#d44545"/><path d="m283.632812 5.867188c-3.089843-5.519532-10.066406-7.496094-15.589843-4.410157-.882813.496094-21.859375 12.371094-42.796875 36.691407-24.6875 28.683593-39.027344 62.851562-41.917969 99.519531 6.523437.285156 13.058594.269531 19.582031-.078125 1.144532-.058594 2.273438-.09375 3.394532-.117188 2.769531-30.976562 14.761718-59.09375 35.757812-83.738281 18.242188-21.414063 36.839844-32.09375 37.179688-32.289063 5.507812-3.09375 7.472656-10.0625 4.390624-15.578124zm0 0" fill="#61ce4a"/><path d="m200.246094 137.667969c4.507812-57.148438 37.957031-106.6875 81.511718-134.273438-3.53125-3.5625-9.121093-4.503906-13.714843-1.9375-.882813.496094-21.863281 12.371094-42.796875 36.691407-24.6875 28.683593-39.027344 62.851562-41.917969 99.519531 5.785156.253906 11.582031.253906 17.371094.011719-.152344-.003907-.304688-.007813-.453125-.011719zm0 0" fill="#50bc37"/></svg>